#!OML:ASF F:\VICON\USERDATA\INSTALL\rory3\rory3.ASF
:FULLY-SPECIFIED
:DEGREES
106
root -0.7632570383554445 17.200459421762456 16.52978140217604 2.3627917418099993 -3.964616982849398 -2.592243292282521
lfemur -27.491065315236526 6.151932104059168 -18.131844708742452
ltibia 86.01808088385376
lfoot 5.6417970527477355 -11.140218802978737
ltoes -4.751424204031909
rfemur -11.782546625849113 6.458539530999041 30.727379036264725
rtibia 86.38305406504676
rfoot -3.394131461129675 -10.31541463756929
rtoes 4.53811043793752
lowerback 16.055485824128457 1.305638146555855 1.6245264838267173
upperback -0.3443816643965011 2.0957919710934387 0.6292751711507603
thorax -10.26112977080155 0.9770086178602855 -0.14614562854832613
lowerneck -20.956087378117303 -4.5225065402974485 -1.9350515124187582
upperneck 9.992810303746383 -6.021019493818733 2.6581775316663783
head 6.601226045825378 -2.7031218195155553 0.35887396458715204
lclavicle 1.1245391003452066e-15 -1.4766016290043837e-15
lhumerus -39.352829837246105 -16.14279685706163 96.98793349084053
lradius 111.40074601866698
lwrist 29.321768877688072
lhand -31.38161979470168 0.8404887364117305
lfingers 7.125019999999998
lthumb -4.654132541539018 30.428406128417112
rclavicle 1.1245391004114727e-15 -1.4766016289602692e-15
rhumerus -55.7619646214566 7.057094744412841 -97.07693306797078
rradius 119.22905553083822
rwrist -12.308079337999903
rhand -18.583691743214374 33.84168439584951
rfingers 7.125019999999998
rthumb 6.068610661502924 5.382176499398916
107
root -0.781113763503537 17.197373871514554 16.822621114654016 2.398528562231111 -4.07665985222784 -2.7330146886824407
lfemur -27.799682034091425 6.316752842246018 -18.04078212575574
ltibia 84.89578547101902
lfoot 5.587287553770873 -10.863737134504262
ltoes -3.542573013275149
rfemur -12.25705124444336 6.537192290741094 30.838027405004482
rtibia 87.33167972664606
rfoot -3.558742290332646 -10.46614926077874
rtoes 5.171452023236409
lowerback 16.202986726228612 1.3202112722683854 1.7001090300505686
upperback -0.2887379050158495 2.1339549527490704 0.7420401390879107
thorax -10.356504534798901 0.9878170479122161 -0.12428225264053172
lowerneck -21.04432994829487 -4.504383745760553 -1.9715087034377898
upperneck 10.046730023307967 -5.9864417433211985 2.706856488899506
head 6.674412504632034 -2.674922040126151 0.3652689115369371
lclavicle 1.1245391003463597e-15 -1.47660162900363e-15
lhumerus -39.205870755864275 -16.01966368383694 96.83288007266562
lradius 112.27502470359946
lwrist 30.599760157662644
lhand -31.383215459954656 0.9009659561642137
lfingers 7.125019999999998
lthumb -4.778694719252643 30.470553384121484
rclavicle 1.1245391004120046e-15 -1.4766016289599653e-15
rhumerus -55.412006353019166 7.28808037074022 -97.15693617230285
rradius 119.03133420398474
rwrist -12.753400324686599
rhand -18.43124768706696 34.11311044184097
rfingers 7.125019999999998
rthumb 6.178916748887666 5.641711278140235
108
root -0.7861922373197854 17.198545202047224 17.07871897260468 2.4587954130042986 -4.198496015637115 -2.829840806773159
lfemur -27.98281761208022 6.456169537816401 -18.047310241004993
ltibia 83.68598350229982
lfoot 4.476917033631712 -10.545871424478582
ltoes -5.623829857129811
rfemur -12.67778159667104 6.570457822161917 30.911594992821765
rtibia 88.14730936771275
rfoot -3.779328018101864 -10.553792249101189
rtoes 4.088236998532086
lowerback 16.247280085321165 1.336551663494334 1.7742714530142103
upperback -0.23907268339430454 2.1678862163933545 0.8282606405830168
thorax -10.344440537159697 1.0224247842720031 -0.051344462949924674
lowerneck -21.1411603903656 -4.487818279299637 -2.0111017324454643
upperneck 10.15185577002201 -5.96715432427049 2.755222098409003
head 6.799479925920883 -2.6485565947371112 0.37193821152407286
lclavicle 1.1245391003495704e-15 -1.4766016290015152e-15
lhumerus -39.08970132342414 -15.833576817615452 96.6917022234598
lradius 113.10657882615301
lwrist 31.822381337282255
lhand -31.447920344157552 0.8149299726340384
lfingers 7.125019999999998
lthumb -4.897701444384017 30.527170214783744
rclavicle 1.124539100413915e-15 -1.4766016289588082e-15
rhumerus -55.134940364846315 7.480060005011703 -97.27905388019175
rradius 118.86089989113621
rwrist -12.997045218464129
rhand -18.337248024812695 34.36519024334158
rfingers 7.125019999999998
rthumb 6.2733025487258285 5.984961774048726
109
root -0.7728138621277676 17.207538056240303 17.138463757211163 2.536671370713848 -4.317289436286527 -2.915976204846057
lfemur -28.060483255887092 6.541160459495848 -18.08893907675055
ltibia 82.40046354418014
lfoot 3.5717393204923145 -10.101364242960779
ltoes -8.024328595938051
rfemur -13.049928524565953 6.435112623066254 30.97477781820419
rtibia 88.77204847464384
rfoot -3.9821592903038368 -10.369815565769198
rtoes 3.854693929112198
lowerback 16.154052357026078 1.3493146776733589 1.8851167895762555
upperback -0.22144611023243466 2.1981752388773987 0.8677462805571562
thorax -10.251486949498533 1.046329163402254 -0.020191921318789885
lowerneck -21.16202159485225 -4.458966825083025 -2.036512818592536
upperneck 10.249630006535687 -5.9190810287601066 2.7755639525915954
head 6.901012784070199 -2.613526669196983 0.37212188728497225
lclavicle 1.1245391003513694e-15 -1.4766016290004644e-15
lhumerus -39.10032452928659 -15.623842315610423 96.60645723416047
lradius 113.9029764158912
lwrist 32.1751463683783
lhand -31.50048844634309 0.6315652281887307
lfingers 7.125019999999998
lthumb -4.849375364957861 30.478447950447496
rclavicle 1.1245391004154342e-15 -1.4766016289579864e-15
rhumerus -54.89891810606624 7.65365676176856 -97.38997876645477
rradius 118.70428889144898
rwrist -13.207319459622557
rhand -18.30472680041827 34.6021856208222
rfingers 7.125019999999998
rthumb 6.307635486552747 6.228909437288269
110
root -0.7830729006243379 17.227858114559726 17.35775498687572 2.653889939599831 -4.273369219434225 -3.0394696538235464
lfemur -28.184108134476954 6.510136646198682 -18.08506237065618
ltibia 81.02127033100628
lfoot 3.082572317927591 -9.93799584091142
ltoes -8.607340856138318
rfemur -13.541177560177289 6.319548830101266 31.024806877334246
rtibia 89.22782274012853
rfoot -4.575556307015795 -10.596070616595377
rtoes 5.627881555708054
lowerback 16.190477948051207 1.3467920047330577 1.972817863702164
upperback -0.2177943766801418 2.235758403088965 1.0000546700422577
thorax -10.366650494284867 1.0515466245234322 -0.01100933508470181
lowerneck -21.07890676840918 -4.42842095323674 -2.0577527001917444
upperneck 10.370850267624853 -5.873033902765922 2.7797811644053954
head 7.01102231807161 -2.5798544067244555 0.3659179870833694
lclavicle 1.1245391003558266e-15 -1.4766016289972841e-15
lhumerus -39.23297984607838 -15.437596461674257 96.53435184431592
lradius 114.66852952333709
lwrist 33.03270075900157
lhand -31.19504242767269 0.8474531669721993
lfingers 7.125019999999998
lthumb -4.964654144296901 30.304701323853614
rclavicle 1.1245391004146538e-15 -1.4766016289586496e-15
rhumerus -54.66561178952942 7.829906016226619 -97.48141066639815
rradius 118.55884745452815
rwrist -13.223910548681612
rhand -18.317858413907125 34.8168267231354
rfingers 7.125019999999998
rthumb 6.3087942123347975 6.429027690146478
111
root -0.8184534166004894 17.253557463666883 17.612424254764687 2.695373318504213 -3.9618606378361845 -3.0864674749714034
lfemur -28.31733778839262 6.333340359159364 -18.236475576450676
ltibia 79.57076521560484
lfoot 2.905278776113718 -9.817421474277687
ltoes -8.122455519657683
rfemur -13.993898219298496 6.234580512601298 30.927045426504066
rtibia 89.57656732623049
rfoot -4.286557663943604 -10.766232029663609
rtoes 5.678930054753167
lowerback 16.425499231324967 1.3242558661779595 1.959733148280346
upperback -0.18973728374805143 2.2397307508375763 1.2448529321180914
thorax -10.481474526071946 1.0171684635090996 -0.09027302184973973
lowerneck -20.952055235045034 -4.415341041818089 -2.052006869583712
upperneck 10.52278062459458 -5.852853813407376 2.7636387328564984
head 7.112460855319642 -2.5693440606220324 0.3506604915040188
lclavicle 1.1245391003535902e-15 -1.4766016289989981e-15
lhumerus -39.458095616210734 -15.294008843841581 96.42172856344462
lradius 115.33524157844612
lwrist 33.968757184887636
lhand -31.055169124796755 0.8314008771129702
lfingers 7.125019999999998
lthumb -4.935852668995724 30.3702482291095
rclavicle 1.1245391004161295e-15 -1.476601628957656e-15
rhumerus -54.433982339806526 8.000384942161034 -97.56071090779203
rradius 118.42199581677951
rwrist -13.409871009024437
rhand -18.292778130246745 35.21607830332325
rfingers 7.125019999999998
rthumb 6.2847445370104955 6.689375834850975
112
root -0.83461928924023 17.275490206814066 17.851103453616 2.7240817778215907 -4.013753529791337 -3.1247101086254716
lfemur -28.241854916756473 6.310310864676021 -18.417570550430185
ltibia 78.06280865678924
lfoot 3.448986594976331 -9.302170175675819
ltoes -6.7548668309929205
rfemur -14.250523530233306 6.201295008652501 30.86803722591353
rtibia 89.73968144062087
rfoot -4.406305636706183 -10.82825729214839
rtoes 5.5351667343454976
lowerback 16.494950090015852 1.3622755783048086 1.9803349579307632
upperback -0.17831885020988414 2.313333556239848 1.4034623910069772
thorax -10.54788527464337 1.061688562087994 -0.04930392947456941
lowerneck -20.71316087032388 -4.389878409607632 -2.0747091627476064
upperneck 10.698809953674676 -5.819468508945975 2.762407936471163
head 7.212869090671718 -2.547196416907944 0.3480634626928954
lclavicle 1.1245391003531552e-15 -1.4766016289995117e-15
lhumerus -39.85298637182539 -15.167386236112534 96.3918080939928
lradius 115.90415134151587
lwrist 34.65314420030947
lhand -31.042582801177595 0.6602685332722134
lfingers 7.125019999999998
lthumb -4.984377838301287 30.234914614067666
rclavicle 1.124539100417242e-15 -1.4766016289570435e-15
rhumerus -54.25477373089342 8.173368247121848 -97.62558440026699
rradius 118.3151495366712
rwrist -13.487242612393315
rhand -18.270786845202885 35.729264632848086
rfingers 7.125019999999998
rthumb 6.2565951523991945 7.070192048341997
